#!OML:ASF H:\Dans Jumps\Project 1\Capture day 1\Session 1\subject.ASF
:FULLY-SPECIFIED
:DEGREES
501
root 0.345139 17.7499 -2.85491 8.81218 0.381959 -1.34274
lowerback 1.35522 -0.290605 -0.245075
upperback 3.31903 -0.423051 1.72512
thorax 2.66144 -0.242295 1.90523
lowerneck -13.0444 -0.0797179 -2.11651
upperneck 34.4189 0.131349 0.983637
head 13.862 -0.0861213 0.788379
rclavicle -9.93923e-017 -1.72943e-014
rhumerus -25.1983 -13.8292 -80.888
rradius 23.6471
rwrist 33.0919
rhand -19.2963 -26.5825
rfingers 7.12502
rthumb 7.01917 -56.4461
lclavicle -9.93923e-017 -1.72943e-014
lhumerus -24.6117 -5.60846 91.2795
lradius 18.3723
lwrist 10.6977
lhand -25.174 -1.10493
lfingers 7.12502
lthumb 1.34355 28.8706
rfemur -19.0879 -1.33149 19.5164
rtibia 23.8443
rfoot -12.3238 -0.894349
rtoes 14.8215
lfemur -17.7407 6.78972 -17.5895
ltibia 20.9367
lfoot -9.00847 2.98908
ltoes 1.96342
502
root 0.346374 17.7516 -2.85465 8.79446 0.381009 -1.3235
lowerback 1.33324 -0.297331 -0.239198
upperback 3.32615 -0.431964 1.70947
thorax 2.68127 -0.246504 1.88563
lowerneck -13.0382 -0.0732197 -2.13175
upperneck 34.5094 0.145323 0.983178
head 13.9009 -0.0828489 0.793764
rclavicle 1.78906e-015 4.77083e-015
rhumerus -25.1959 -13.7842 -80.9375
rradius 23.6689
rwrist 33.0628
rhand -19.2724 -26.5695
rfingers 7.12502
rthumb 7.04221 -56.4324
lclavicle 1.78906e-015 4.77083e-015
lhumerus -24.5595 -5.56401 91.2222
lradius 18.3659
lwrist 10.6917
lhand -25.1675 -1.03623
lfingers 7.12502
lthumb 1.34976 28.9392
rfemur -19.0387 -1.32793 19.491
rtibia 23.7924
rfoot -12.3034 -0.911988
rtoes 14.8168
lfemur -17.6639 6.80294 -17.6123
ltibia 20.8338
lfoot -8.98561 2.96471
ltoes 1.96635
503
root 0.347422 17.7533 -2.85474 8.77719 0.382362 -1.30622
lowerback 1.31399 -0.304229 -0.232231
upperback 3.33337 -0.441102 1.69446
thorax 2.69965 -0.250795 1.86607
lowerneck -13.0298 -0.0697808 -2.14094
upperneck 34.5972 0.155013 0.976988
head 13.9383 -0.0814073 0.795097
rclavicle 6.95746e-016 -1.15295e-014
rhumerus -25.1941 -13.7483 -80.9826
rradius 23.6872
rwrist 33.0428
rhand -19.2403 -26.5578
rfingers 7.12502
rthumb 7.07322 -56.4196
lclavicle 6.95746e-016 -1.15295e-014
lhumerus -24.5051 -5.52298 91.1686
lradius 18.3635
lwrist 10.6963
lhand -25.1332 -0.927796
lfingers 7.12502
lthumb 1.3829 29.0475
rfemur -18.9897 -1.31926 19.468
rtibia 23.7383
rfoot -12.2828 -0.935439
rtoes 14.8113
lfemur -17.5923 6.81778 -17.6329
ltibia 20.7353
lfoot -8.96184 2.93872
ltoes 1.96905
504
root 0.348313 17.755 -2.85503 8.7592 0.386805 -1.29271
lowerback 1.29895 -0.311706 -0.222226
upperback 3.33926 -0.45101 1.68109
thorax 2.71433 -0.255389 1.84651
lowerneck -13.0209 -0.0689058 -2.14752
upperneck 34.6863 0.160977 0.968462
head 13.9764 -0.0815734 0.794464
rclavicle 4.47266e-015 -4.37326e-015
rhumerus -25.1942 -13.7216 -81.0204
rradius 23.6965
rwrist 33.0339
rhand -19.2112 -26.5447
rfingers 7.12502
rthumb 7.10131 -56.4056
lclavicle 4.47266e-015 -4.37326e-015
lhumerus -24.4535 -5.48775 91.1212
lradius 18.3643
lwrist 10.709
lhand -25.0597 -0.767145
lfingers 7.12502
lthumb 1.45387 29.2076
rfemur -18.9375 -1.30878 19.4497
rtibia 23.68
rfoot -12.2619 -0.96256
rtoes 14.8015
lfemur -17.5243 6.83345 -17.6491
ltibia 20.6417
lfoot -8.93729 2.91085
ltoes 1.97645
